[center][img]http://img198.imageshack.us/img198/3576/21667frontq.jpg[/img]



[img]http://leetleech.org/images/48874973695367351744.png[/img]


Format                           : AVI
Format/Info                      : Audio Video Interleave
File size                        : 1.78 GiB
Duration                         : 1h 50mn
Overall bit rate                 : 2 320 Kbps
Writing application              : VirtualDubMod 1.5.10.3 | www.virtualdub-fr.org || (build 2550/release)
Writing library                  : VirtualDubMod build 2550/release

Video
ID                               : 0
Format                           : MPEG-4 Visual
Format profile                   : Advanced Simple@L5
Format settings, BVOP            : Yes
Format settings, QPel            : No
Format settings, GMC             : No warppoints
Format settings, Matrix          : Default (MPEG)
Codec ID                         : XVID
Codec ID/Hint                    : XviD
Duration                         : 1h 50mn
Bit rate                         : 1 863 Kbps
Width                            : 720 pixels
Height                           : 304 pixels
Display aspect ratio             : 2.35:1
Frame rate                       : 23.976 fps
Color space                      : YUV
Chroma subsampling               : 4:2:0
Bit depth                        : 8 bits
Scan type                        : Progressive
Bits/(Pixel*Frame)               : 0.355
Stream size                      : 1.43 GiB (80%)
Writing library                  : XviD 62

Audio
ID                               : 1
Format                           : AC-3
Format/Info                      : Audio Coding 3
Mode extension                   : CM (complete main)
Codec ID                         : 2000
Duration                         : 1h 50mn
Bit rate mode                    : Constant
Bit rate                         : 448 Kbps
Channel(s)                       : 6 channels
Channel positions                : Front: L C R, Side: L R, LFE
Sampling rate                    : 48.0 KHz
Bit depth                        : 16 bits
Stream size                      : 353 MiB (19%)
Alignment                        : Split accross interleaves
Interleave, duration             : 42 ms (1.00 video frame)
Interleave, preload duration     : 500 ms




[url]http://www.imdb.com/title/tt1161864/[/url]




[IMG]http://leetleech.org/images/89524873606771859129.png[/IMG]


Users: 6.1/10 (8,664 votes) 94 reviews | Critics: 167 reviews Metascore: 38/100 (based on 33 reviews from Metacritic.com)

An American seminary student travels to Italy to take an exorcism course.
Director:
Mikael Håfström
Writers:
Michael Petroni, Matt Baglio (book) (suggestion)
Stars:
Colin O'Donoghue, Anthony Hopkins and Ciarán Hinds 



[img]http://leetleech.org/images/95521316153253938506.png[/img]




[img]http://img819.imageshack.us/img819/8453/vlcsnap2011042612h10m20.png[/img]
[img]http://img220.imageshack.us/img220/9386/vlcsnap2011042612h09m55.png[/img]
[img]http://img88.imageshack.us/img88/8138/vlcsnap2011042612h11m25.png[/img]



Source...............: 720p.BluRay.X264-AMIABLE     ..........Thanks 

Hardcoded english subs for foreign speaking parts 

File size is needed i wont compress to compensate quality 

Enjoy !



Greetz to Imagine ,Flawl3ss,DiLLoN,BDK,NOiR,TOXiCiNK,THC,Ez,Rx,Boobyblue





[img]http://img411.imageshack.us/img411/6898/sig1n.jpg[/img]












[/center]